<svg width="1024" height="1024" viewBox="0 0 1024 1024" fill="none" xmlns="http://www.w3.org/2000/svg">
<g clip-path="url(#clip0_69_318)">
<g opacity="0.95" filter="url(#filter0_dd_69_318)">
<path fill-rule="evenodd" clip-rule="evenodd" d="M114.169 305.981C100 333.79 100 370.193 100 443V581C100 653.807 100 690.21 114.169 718.019C126.633 742.48 146.52 762.367 170.981 774.831C198.79 789 235.193 789 308 789H716C788.807 789 825.21 789 853.019 774.831C877.48 762.367 897.367 742.48 909.831 718.019C924 690.21 924 653.807 924 581V443C924 370.193 924 333.79 909.831 305.981C897.367 281.52 877.48 261.633 853.019 249.169C825.21 235 788.807 235 716 235H308C235.193 235 198.79 235 170.981 249.169C146.52 261.633 126.633 281.52 114.169 305.981ZM656.031 441.969C656.031 431.227 647.242 422.438 636.5 422.438C624.781 422.438 616.969 431.227 616.969 441.969V445.875H566.188C554.469 445.875 546.656 454.664 546.656 465.407C546.656 476.149 554.469 484.938 566.188 484.938H670.68C662.867 501.539 653.102 516.188 641.383 528.883H640.406L626.734 514.235C618.922 506.422 606.227 506.422 598.414 514.235C591.578 522.047 591.578 534.742 598.414 542.555L611.109 554.274C608.18 555.739 605.006 557.448 601.832 559.157C598.658 560.866 595.484 562.575 592.555 564.039L588.648 565.016C578.883 569.899 574.977 580.641 578.883 591.383C583.766 601.149 595.484 605.055 605.25 601.149L608.18 599.196C619.898 594.313 631.617 587.477 641.383 580.641C645.289 583.571 650.172 586.5 654.078 588.453L672.633 600.172C682.398 605.055 694.117 602.125 699.977 593.336C704.859 583.571 701.93 571.852 693.141 565.992L674.586 555.25C674.098 554.762 673.609 554.518 673.121 554.274C672.633 554.03 672.145 553.785 671.656 553.297C688.258 535.719 701.93 513.258 710.719 489.821L712.672 484.938H714.625C725.367 484.938 734.156 476.149 734.156 465.407C734.156 454.664 725.367 445.875 714.625 445.875H656.031V441.969ZM373.805 531.813L355.25 490.797L335.719 531.813H373.805ZM261.5 324.782C226.344 324.782 199 353.102 199 387.282V637.282C199 672.438 226.344 699.782 261.5 699.782H761.5C795.68 699.782 824 672.438 824 637.282V387.282C824 353.102 795.68 324.782 761.5 324.782H261.5ZM761.5 637.282H511.5V387.282H761.5V637.282ZM355.25 422.438C362.086 422.438 369.898 427.321 372.828 434.157L435.328 574.782C439.234 584.547 435.328 596.266 425.562 601.149C415.797 605.055 404.078 601.149 399.195 591.383L390.406 570.875H319.117L310.328 591.383C305.445 601.149 293.727 605.055 283.961 601.149C274.195 596.266 270.289 584.547 274.195 574.782L336.695 434.157C339.625 427.321 347.438 422.438 355.25 422.438Z" fill="white"/>
</g>
</g>
<defs>
<filter id="filter0_dd_69_318" x="98" y="235" width="836" height="564" filterUnits="userSpaceOnUse" color-interpolation-filters="sRGB">
<feFlood flood-opacity="0" result="BackgroundImageFix"/>
<feColorMatrix in="SourceAlpha" type="matrix" values="0 0 0 0 0 0 0 0 0 0 0 0 0 0 0 0 0 0 127 0" result="hardAlpha"/>
<feOffset dy="4"/>
<feGaussianBlur stdDeviation="1"/>
<feColorMatrix type="matrix" values="0 0 0 0 1 0 0 0 0 1 0 0 0 0 1 0 0 0 0.37 0"/>
<feBlend mode="normal" in2="BackgroundImageFix" result="effect1_dropShadow_69_318"/>
<feColorMatrix in="SourceAlpha" type="matrix" values="0 0 0 0 0 0 0 0 0 0 0 0 0 0 0 0 0 0 127 0" result="hardAlpha"/>
<feOffset dx="5" dy="5"/>
<feGaussianBlur stdDeviation="2.5"/>
<feColorMatrix type="matrix" values="0 0 0 0 0 0 0 0 0 0 0 0 0 0 0 0 0 0 0.25 0"/>
<feBlend mode="normal" in2="effect1_dropShadow_69_318" result="effect2_dropShadow_69_318"/>
<feBlend mode="normal" in="SourceGraphic" in2="effect2_dropShadow_69_318" result="shape"/>
</filter>
<clipPath id="clip0_69_318">
<rect width="1024" height="1024" fill="white"/>
</clipPath>
</defs>
</svg>
